<?xml version="1.0" encoding="UTF-8"?>
<svg width="512" height="512" viewBox="0 0 512 512" fill="none" xmlns="http://www.w3.org/2000/svg">
  <rect width="512" height="512" rx="128" fill="#4F46E5"/>
  <path d="M256 128C194.144 128 144 178.144 144 240C144 301.856 194.144 352 256 352C317.856 352 368 301.856 368 240C368 178.144 317.856 128 256 128ZM256 320C211.888 320 176 284.112 176 240C176 195.888 211.888 160 256 160C300.112 160 336 195.888 336 240C336 284.112 300.112 320 256 320Z" fill="white"/>
  <path d="M272 208H240V272H272V208Z" fill="white"/>
  <path d="M272 176H240V192H272V176Z" fill="white"/>
</svg> 